<?xml version="1.0" encoding="UTF-8"?><svg id="Layer_2" xmlns="http://www.w3.org/2000/svg" viewBox="0 0 65.47 65.47"><g id="Layer_1-2"><path d="M32.84,0c17.96,.09,32.72,14.94,32.63,32.84-.09,17.96-14.94,32.72-32.84,32.63C14.67,65.38-.09,50.52,0,32.63,.09,14.67,14.94-.09,32.84,0Zm20.16,50.69c9.61-8.38,9.54-26.6-.8-37.08C40.98,2.24,22.93,2.75,12.19,14.75c-9.45,10.57-8.82,28.79,1.28,36.78,1.79-1.88,3.4-3.98,5.41-5.59,2.08-1.67,4.55-2.87,6.88-4.29-6.8-6.29-7.84-13.9-2.76-19.42,5.04-5.47,13.5-6.14,18.74-.8,2.18,2.22,3.67,5.68,4.21,8.8,.83,4.81-2.22,8.39-6.01,11.4,2.4,1.42,4.61,2.54,6.62,3.95,2.15,1.5,4.12,3.26,6.44,5.12Zm-35.88,4.04c8.65,7.13,24.19,6.9,31.41-.35-3.49-6.15-8.85-9.41-15.86-9.31-6.84,.1-12.09,3.34-15.55,9.66Zm24.69-24.22c-.09-4.86-4.07-8.58-9.09-8.48-4.9,.1-8.68,3.8-8.68,8.5,0,4.92,3.85,8.67,8.89,8.66,5.01-.01,8.97-3.88,8.88-8.68Z"/></g></svg>