<?xml version="1.0" encoding="UTF-8"?><svg id="Layer_2" xmlns="http://www.w3.org/2000/svg" viewBox="0 0 188.64 95"><defs><style>.cls-1{fill:none;stroke:#000;stroke-miterlimit:10;stroke-width:4px;}.cls-2{fill:#fff;}</style></defs><g id="Layer_1-2"><g><g><g><path d="M163.39,20V91H73.39V20h90m4-4H69.39V95h98V16h0Z"/><line class="cls-1" x1="70.39" y1="34.5" x2="164.39" y2="34.5"/></g><polygon points="126.89 48 118.39 39 109.89 48 109.89 16 126.89 16 126.89 48"/></g><line class="cls-1" x1="61.13" y1="35.5" y2="35.5"/><line class="cls-1" x1="13.58" y1="56.33" x2="61.13" y2="56.33"/><line class="cls-1" x1="61.13" y1="77.17" x2="30.57" y2="77.17"/><g><g><circle class="cls-2" cx="165.64" cy="23" r="21"/><path d="M165.64,4c10.48,0,19,8.52,19,19s-8.52,19-19,19-19-8.52-19-19,8.52-19,19-19m0-4c-12.7,0-23,10.3-23,23s10.3,23,23,23,23-10.3,23-23S178.34,0,165.64,0h0Z"/></g><polyline class="cls-1" points="165.64 12.4 165.64 23 155.51 23"/></g></g></g></svg>