<?xml version="1.0" encoding="UTF-8"?><svg id="Layer_2" xmlns="http://www.w3.org/2000/svg" viewBox="0 0 57.59 58.17"><g id="Layer_1-2"><path d="M18.1,43.59c-4.44,4.71-9.02,9.56-13.75,14.59L0,53.67c4.7-4.54,9.41-9.08,14.35-13.85-5.32-8.62-7.07-17.14-2.83-26.11,2.49-5.25,6.52-8.98,11.72-11.48,9.73-4.68,21.95-1.84,28.98,6.69,6.9,8.38,7.19,21.01,.67,29.69-7.8,10.38-18.69,12.03-34.79,4.96Zm-2.32-19.69c.04,10.3,7.67,17.99,17.77,17.92,9.69-.07,17.56-7.93,17.5-17.49-.06-9.97-7.79-17.76-17.63-17.76-9.72,0-17.67,7.82-17.64,17.33Z"/></g></svg>