<?xml version="1.0" encoding="UTF-8"?><svg id="Layer_2" xmlns="http://www.w3.org/2000/svg" viewBox="0 0 61.35 53.8"><g id="Layer_1-2"><path d="M28.89,5.72C34.51,3.56,39,.85,43.76,.24c7.25-.94,12.56,3.27,15.68,9.59,3.08,6.25,2.54,12.72-2.35,17.74-8.61,8.85-17.74,17.19-27.16,26.23-4.44-4.44-9.39-9.39-14.34-14.35-3.34-3.35-6.72-6.66-9.99-10.07C-1.52,21.97-1.87,11.83,4.67,4.97c6.34-6.65,15.25-6.62,23.43,.08,.56,.46,1.1,.94,.79,.68Zm1.2,40.54c7.81-7.44,15.79-14.56,23.16-22.26,4.28-4.46,3.38-11.44-1.01-15.7-3.84-3.73-10.33-4.06-14.98-.53-2.44,1.85-4.6,4.05-7.93,7.02-1.36-1.86-2.42-3.84-3.96-5.32-5.25-5.03-11.67-5.54-16.08-1.51-5.1,4.66-5.82,11.44-.76,16.95,6.96,7.57,14.6,14.52,21.56,21.34Z"/></g></svg>