<?xml version="1.0" encoding="UTF-8"?><svg id="Layer_2" xmlns="http://www.w3.org/2000/svg" viewBox="0 0 68.38 60.01"><g id="Layer_1-2"><g><path d="M20,46.38c-2.54-9.9-5.04-19.65-7.54-29.41-.03-.12-.04-.25-.07-.37-.85-3.25-.76-7.49-2.82-9.48-1.9-1.83-6.1-1.25-9.57-1.78V.03C4.18,.03,8.49-.09,12.77,.15c.7,.04,1.64,1.57,1.93,2.56,1.93,6.65,1.88,6.67,8.7,6.67,13.52,0,27.03,0,40.55,0,1.32,0,2.65,0,4.44,0-3.09,12.06-6.02,23.61-9.09,35.13-.2,.77-1.45,1.78-2.22,1.79-12.26,.11-24.53,.08-37.08,.08Zm4.45-6c9.6,0,18.88,.03,28.15-.06,.75,0,1.97-.77,2.15-1.41,2.12-7.77,4.09-15.59,6.11-23.46H18.02c2.2,8.54,4.29,16.67,6.42,24.93Z"/><path d="M33.1,54.44v5.29h-10.08l-1.18-5.29h11.25Z"/><path d="M45.95,60.01v-5.66h10.81q-.43,5.66-5.58,5.66c-1.7,0-3.4,0-5.23,0Z"/></g></g></svg>