<?xml version="1.0" encoding="UTF-8"?><svg id="Layer_2" xmlns="http://www.w3.org/2000/svg" viewBox="0 0 59.44 28.87"><g id="Layer_1-2"><path d="M23.52,28.72c-6.35,0-12.7,.05-19.05-.02-4.24-.05-5.01-1.1-4.16-5.26C1.48,17.63,2.55,11.79,3.93,6.03c.27-1.14,1.59-2.51,2.71-2.86C10.79,1.87,15.02,.78,19.29,.04c1.26-.22,3.25,.59,4.08,1.6,7.33,8.92,17.26,12.66,28.16,14.65,1.82,.33,3.9,.47,5.3,1.47,1.32,.94,2.59,2.89,2.61,4.41,.01,1.17-1.79,3.09-3.09,3.4-5.53,1.31-11.14,2.52-16.78,3.05-5.31,.5-10.7,.11-16.05,.11ZM2.06,25.15c-.2,1,.52,1.95,1.54,2,.88,.05,1.45,.06,2.38,.06,10.47,.03,20.96,.33,31.42-.11,6.03-.25,12.02-1.62,17.99-2.71,1.04-.19,2.78-1.79,2.64-2.28-.4-1.36-1.37-3.02-2.57-3.58-1.86-.87-4.09-.96-6.17-1.33-8.9-1.56-17.39-4.52-23.52-11.25-3.79-4.16-6.92-4.52-12.11-3.27-5.59,1.35-9.31,2.79-9.78,9.31-.31,4.26-.9,8.58-1.81,13.15Z"/></g></svg>