<?xml version="1.0" encoding="UTF-8"?><svg id="Layer_2" xmlns="http://www.w3.org/2000/svg" viewBox="0 0 57.94 84.85"><g id="Layer_1-2"><path d="M0,0H28.61V84.45H0V0ZM3.02,3.09V81.58H25.51v-9.87c-3.72,0-7.18-.05-10.64,.02-2.19,.04-2.99-.76-1.95-3.34h12.62v-10.58c-1.83,0-3.45,.19-5-.07-.96-.16-1.82-1-2.72-1.53,.95-.46,1.87-1.17,2.87-1.32,1.54-.22,3.14-.06,4.85-.06v-10.93c-3.81,0-7.38-.03-10.94,0-2.53,.03-2.47-1.22-1.61-3.27h12.61v-10.64c-2.01,0-3.85,.14-5.65-.07-.75-.09-1.43-.9-2.13-1.38,.68-.51,1.32-1.37,2.05-1.46,1.81-.21,3.67-.07,5.7-.07v-10.82H12.84c-.23-2.95-.23-3.03,2.02-3.07,3.55-.06,7.09-.02,10.6-.02V3.09H3.02Z"/><path d="M40.46,.16h17.27c.07,1.38,.19,2.59,.2,3.79,.01,17.25,.05,34.49-.04,51.74-.01,2.04-.5,4.18-1.22,6.1-1.69,4.52-3.6,8.96-5.55,13.38-.35,.79-1.2,1.6-2,1.84-.43,.13-1.54-.8-1.79-1.47-3.11-8.25-7.45-15.94-7.04-25.44,.65-15.23,.18-30.51,.18-45.78,0-1.33,0-2.66,0-4.16Zm8.76,71.46c3.15-7.19,6.07-13.74,5.77-21.61-.55-14.24-.15-28.53-.16-42.79,0-1.32-.11-2.64-.17-4.01h-11.14V7.51c0,13.77,.4,27.56-.15,41.3-.33,8.2,2.13,15.29,5.86,22.81Z"/><path d="M54.47,81.94q-.04,3.03-7.93,2.86c-1.8-.04-3.74,.19-2.58-2.86h10.51Z"/></g></svg>