<?xml version="1.0" encoding="UTF-8"?><svg id="Layer_2" xmlns="http://www.w3.org/2000/svg" viewBox="0 0 58.78 30.25"><g id="Layer_1-2"><path d="M23.54,30.11c-6.35,0-12.7-.13-19.04,.06-2.79,.08-4.7-.94-4.48-3.58,.53-6.12,1.51-12.21,2.52-18.28,.08-.48,1.88-.93,2.87-.9,.76,.02,1.47,.86,2.24,1.27,5.58,3,8.46,1.31,8.55-5,.05-3.66,1.56-4.49,5.03-2.89,5.64,2.6,11.21,5.41,17,7.64,4.72,1.82,9.69,3.08,14.61,4.31,4.05,1.02,5.8,2.81,5.9,6.88,.17,6.67-.17,6.92-5.22,8.32-9.92,2.75-22.5,2.36-32.46,2.22-.03-.35,2.51,.31,2.48-.04ZM1.18,23.19c1.28,.14,2.12,.3,2.97,.31,12.44,.09,24.89,.44,37.33,.09,4.62-.13,9.2-1.86,13.79-2.89,2.25-.51,2.43-2.26,1.43-3.7-.81-1.17-2.35-2.31-3.72-2.56-11.29-2.06-21.48-6.92-31.61-11.96-.95-.47-1.97-.78-3.56-1.39-.13,3.99,.93,8.71-3.47,9.61-3.25,.67-6.95-.84-10.7-1.41-.31,1.01-1.02,2.63-1.3,4.32-.51,3.03-.76,6.11-1.17,9.59Zm56.04-1.51c-18.4,6.77-37.27,1.74-55.65,3.69-.32,2.96,1.34,3.29,3.67,3.28,11.46-.04,22.82,.5,34.37-.05,3.45-.16,9.29-1.78,15.34-2.54,2.32-.29,2.92-2.02,2.26-4.38Z"/></g></svg>