<?xml version="1.0" encoding="UTF-8"?><svg id="Layer_2" xmlns="http://www.w3.org/2000/svg" viewBox="0 0 59.28 25.45"><g id="Layer_1-2"><path d="M24,25.32c-6.47,0-12.95,.03-19.42-.01-4.23-.03-5.08-1.09-4.35-5.14,.59-3.29,.95-6.63,1.73-9.87,.98-4.04,1.48-4.15,5-2.25,.66,.36,1.31,.73,1.99,1.03,4.83,2.14,7.42,.46,7.41-4.78,0-4.44,1.38-5.24,5.49-3.34,10.47,4.86,20.64,10.5,32.36,12.05,2.89,.38,4.84,2.19,5.05,5.16,.23,3.1-2.32,3.94-4.63,4.42-5.08,1.05-10.18,2.17-15.33,2.62-5.07,.44-10.2,.1-15.3,.1ZM3.73,8.28c-.68,4.23-1,8.06-1.98,11.71-.88,3.27,.23,3.9,3.18,3.87,11.2-.1,22.41,.2,33.6-.15,5.15-.16,10.31-1.29,15.36-2.4,1.47-.32,2.62-2.12,3.92-3.24-1.4-1.23-2.66-3.3-4.22-3.56-11.86-1.97-22.42-7.22-33.01-12.47-.7-.35-1.54-.4-2.35-.6-1.77,11.76-2.82,12.29-14.51,6.84Z"/><circle cx="23.35" cy="6.49" r="1"/><circle cx="25.35" cy="7.49" r="1"/><circle cx="27.35" cy="8.49" r="1"/><circle cx="29.35" cy="9.49" r="1"/><circle cx="31.35" cy="10.49" r="1"/><circle cx="34.35" cy="11.49" r="1"/><circle cx="37.35" cy="12.49" r="1"/></g></svg>