<?xml version="1.0" encoding="UTF-8"?><svg id="Layer_2" xmlns="http://www.w3.org/2000/svg" viewBox="0 0 72.03 60.63"><g id="Layer_1-2"><path d="M0,54.35c7.09-.7,13.9-1.76,19.91-6.84-6.34-1.16-10.88-4.17-13.27-10.32,1.8-.19,3.31-.34,5.86-.61-7.07-3.21-11.06-7.67-11.34-15.06,1.92,.47,3.64,.9,6.47,1.59C1.06,16.91-.33,10.58,3.27,2.74c8.41,9.72,18.67,14.84,31.31,15.88-.59-5.96,.52-11.11,5.2-14.99,5.66-4.69,13.47-4.84,19.35-.51,.98,.72,2.68,1.01,3.9,.76,2.24-.46,4.37-1.46,7.11-1.65-1.64,2.22-3.27,4.45-5.19,7.05,2.24-.53,4.2-1,7.08-1.68-1.51,1.83-2.32,3.43-3.62,4.25-3.19,2.02-3.45,4.92-3.75,8.3-1.45,16.12-9.2,28.44-23.61,35.84-13.78,7.08-27.62,5.67-41.05-1.64Z"/></g></svg>