<?xml version="1.0" encoding="UTF-8"?><svg id="Layer_2" xmlns="http://www.w3.org/2000/svg" viewBox="0 0 74.24 74.31"><defs><style>.cls-1{fill:#fff;}</style></defs><g id="Layer_1-2"><g><path d="M37.16,.17c6.1,0,12.23-.36,18.31,.08,10.28,.75,17.85,8.01,18.33,18.36,.57,12.21,.58,24.47,.06,36.68-.43,10.07-7.47,17.84-17.39,18.44-12.9,.79-25.91,.75-38.82,0-9.45-.55-16.63-7.97-17.12-17.43-.66-12.69-.75-25.47,0-38.15C1.16,7.62,8.71,.92,19.22,.2c5.95-.4,11.96-.07,17.94-.07v.04Zm.06,6.72v-.02c-5.73,0-11.48-.31-17.18,.08-7.86,.54-12.53,4.56-12.91,12.39-.58,11.95-.49,23.96,.05,35.91,.32,7.08,4.37,11.4,11.35,11.75,12.29,.62,24.65,.66,36.94,.03,7.31-.37,11.4-4.96,11.68-12.29,.43-11.71,.45-23.47,0-35.18-.3-7.7-4.95-12.03-12.73-12.59-5.7-.41-11.45-.08-17.18-.08Z"/><path class="cls-1" d="M37.22,6.89c5.73,0,11.48-.33,17.18,.08,7.78,.56,12.43,4.89,12.73,12.59,.46,11.71,.44,23.47,0,35.18-.27,7.33-4.37,11.92-11.68,12.29-12.29,.62-24.65,.58-36.94-.03-6.97-.35-11.02-4.67-11.35-11.75-.54-11.95-.63-23.97-.05-35.91,.38-7.83,5.05-11.85,12.91-12.39,5.7-.39,11.45-.08,17.18-.08v.02Zm.44,11.12c-10.53-.34-19.55,7.99-19.8,18.28-.26,10.82,8.24,19.82,18.97,20.08,10.05,.24,18.98-8.26,19.41-18.47,.45-10.66-7.85-19.54-18.58-19.89Zm18.62,4.16l1.78-.04c1.12-1.62,2.93-3.14,3.21-4.9,.44-2.71-1.5-4.45-4.29-4.38-2.78,.07-4.67,1.83-4.08,4.56,.37,1.75,2.2,3.19,3.38,4.76Z"/><path d="M37.66,18c10.73,.35,19.02,9.23,18.58,19.89-.43,10.21-9.36,18.71-19.41,18.47-10.73-.26-19.23-9.26-18.97-20.08,.25-10.29,9.27-18.63,19.8-18.28Zm-.42,6.73c-6.89-.08-12.51,5.33-12.6,12.14-.09,6.81,5.78,12.79,12.52,12.76,6.67-.04,12.28-5.71,12.36-12.48,.08-6.87-5.33-12.33-12.27-12.41Z"/><path d="M56.28,22.16c-1.18-1.58-3.01-3.01-3.38-4.76-.59-2.73,1.31-4.49,4.08-4.56,2.79-.07,4.73,1.67,4.29,4.38-.28,1.76-2.09,3.27-3.21,4.9l-1.78,.04Z"/><path class="cls-1" d="M37.24,24.73c6.95,.08,12.35,5.54,12.27,12.41-.07,6.78-5.69,12.45-12.36,12.48-6.74,.04-12.61-5.95-12.52-12.76,.09-6.81,5.7-12.21,12.6-12.14Z"/></g></g></svg>